<?xml version="1.0" encoding="UTF-8"?>
<svg id="Livello_1" data-name="Livello 1" xmlns="http://www.w3.org/2000/svg" viewBox="0 0 272.39 106.76">
  <defs>
    <style>
      .cls-1 {
        fill: #715151;
      }

      .cls-2 {
        fill: #d4d4d3;
      }
    </style>
  </defs>
  <g>
    <path class="cls-1" d="M59.06,34.1v.42c.32.07.62.15.92.27.3.1.57.3.87.62.27.35.42.79.42,1.37,0,.84-.52,2.06-1.59,3.63l-7.01,10.53-7.87-11.68c-.67-.99-1.02-1.76-1.02-2.31,0-.5.2-.99.6-1.54.37-.55,1.24-.84,2.63-.89v-.42h-13.46v.42c1.39.05,2.51.32,3.3.82.82.52,1.74,1.56,2.78,3.13l9.64,14.43v14.53c0,1.39-.37,2.41-1.07,3.06-.72.67-1.69,1.02-2.91,1.04v.42h12.02v-.42c-1.17-.02-2.14-.37-2.96-1.07-.82-.67-1.22-1.69-1.22-3.03v-15.18l8.84-13.31c.57-.77,1.09-1.47,1.59-2.01.5-.55,1.19-1.09,2.06-1.61.89-.5,1.89-.77,3.03-.8v-.42h-9.61Z"/>
    <g>
      <path class="cls-1" d="M161.35,56.75c-1.54-1.51-3.7-3.03-6.48-4.55-1.66-.94-2.98-1.69-3.95-2.31-.97-.6-1.84-1.27-2.53-1.96-.72-.7-1.27-1.52-1.64-2.43-.37-.92-.55-1.96-.55-3.15,0-1.52.3-2.88.92-4.05.62-1.19,1.49-2.11,2.61-2.81,1.14-.7,2.43-1.02,3.9-1.02,2.21,0,4.02.67,5.37,2.06,1.37,1.37,2.16,2.98,2.41,4.82h.42v-8.1h-.42c-.2.77-.6,1.17-1.14,1.17-.47,0-.84-.07-1.12-.22-1.74-.55-3.45-.84-5.12-.84-2.19,0-4.15.5-5.89,1.49-1.71.97-3.06,2.29-4,3.9-.94,1.64-1.42,3.35-1.42,5.12,0,1.54.27,2.93.79,4.1.52,1.19,1.24,2.24,2.14,3.11.92.87,1.79,1.59,2.66,2.14.89.55,2.24,1.32,4.05,2.31,2.63,1.42,4.6,2.78,5.89,4.12,1.29,1.34,1.94,3.08,1.94,5.22,0,1.02-.2,2.04-.65,3.08-.45,1.02-1.27,1.89-2.41,2.61-1.17.72-2.71,1.09-4.62,1.09-2.56,0-4.72-.72-6.51-2.14-1.76-1.42-2.98-3.53-3.6-6.31h-.42v9.49h.42c.2-.84.35-1.42.47-1.66.1-.25.35-.37.7-.37.2,0,.55.07,1.04.25,1.24.6,2.46,1.07,3.65,1.39,1.22.35,2.58.5,4.15.5,2.48,0,4.57-.47,6.24-1.44,1.69-.94,2.96-2.19,3.78-3.68.82-1.49,1.24-3.06,1.24-4.67,0-2.63-.77-4.72-2.31-6.24Z"/>
      <path class="cls-1" d="M229.22,34.08v.45c.32.07.62.15.92.25.3.1.57.32.87.65.27.32.42.77.42,1.37,0,.84-.55,2.04-1.59,3.63l-7,10.53-7.87-11.7c-.67-.99-1.02-1.76-1.02-2.31,0-.47.2-.99.57-1.54.4-.52,1.27-.82,2.66-.87v-.45h-13.46v.45c1.39.02,2.51.3,3.3.82.82.52,1.74,1.54,2.78,3.11l9.64,14.46v14.51c0,1.39-.37,2.41-1.07,3.08-.72.65-1.69.99-2.91,1.04v.4h12v-.4c-1.14-.05-2.11-.4-2.93-1.07-.82-.67-1.22-1.69-1.22-3.06v-15.15l8.84-13.31c.57-.8,1.09-1.47,1.59-2.04.5-.55,1.19-1.07,2.06-1.59.89-.52,1.89-.8,3.03-.8v-.45h-9.61Z"/>
      <path class="cls-1" d="M186.59,73.51c-11.87,0-18.4-9.51-18.4-19.75s6.52-19.64,18.4-19.64,18.4,9.4,18.4,19.64-6.58,19.75-18.4,19.75ZM186.59,34.86c-9.96,0-13.11,9.17-13.11,18.96s3.15,18.96,13.11,18.96,13.05-9.17,13.05-18.96-3.15-18.96-13.05-18.96Z"/>
    </g>
    <g>
      <path class="cls-1" d="M132.66,47.02v7.84c-.16,1.18-1.5-.37-1.5-.37l-.02.03c-.05-.08-.14-.2-.23-.28-.67-.58-1.32-1.07-1.96-1.47-.6-.33-1.46-.82-2.69-1.47-.09-.05-.14-.08-.23-.1-1.41-.72-2.55-1.38-3.4-2.09v-.02c-.28-.25-.09-.55-.09-.55l3.72-5.29c.41-.55.81-1.03,1.16-1.42.26-.25.6-.52,1-.77l.02-.03c.16-.05.6-.22,1.02.05.07.03.16.08.21.15.04.02.09.05.12.08.37.27.7.57.99.93,1.16,1.27,1.87,2.94,1.87,4.75Z"/>
      <path class="cls-1" d="M130.27,58.59v.53c-.18,2.66-2.43,4.73-5.26,4.73s-4.97-1.96-5.23-4.51v-1.05l.03-5.26v-.5s0-.47-.32-.94c0-.03-.03-.06-.03-.08-.03-.08-.06-.11-.06-.11l-5.08-7.14s-.03-.03-.06-.08c0,0,0-.03-.03-.03-.12-.22-.09-.5-.06-.64v-.03c1.34-2.3,3.92-3.87,6.87-3.87h1.11c.38.03.29.19.18.28-.03.03-.09.06-.09.06-.26.08-.53.22-.79.36-1.23.64-2.13,1.49-2.75,2.55-.61,1.02-.91,2.1-.91,3.21,0,1.8.55,3.24,1.69,4.29.03,0,.06.03.06.03l.38.33.09.08.5.42.09.06.35.25c.2.14.41.3.64.44.73.5,1.64,1,2.6,1.52.26.14.5.28.73.39.88.47,1.61.89,2.16,1.22.67.42,1.31.86,1.84,1.33.53.5.91,1.05,1.17,1.69.03.08.06.14.09.19v.03c.03.08.06.14.06.19v.03s.03.03.03.06Z"/>
      <path class="cls-1" d="M122.61,66.45h-1.58c-4.35,0-7.86-3.32-7.86-7.42v-11.07s.06-.47.38,0l.09.08,3.16,4.54s.06.06.09.17c.03.08.09.25.09.44l-.03,5.48v.3c.06,1.96.88,3.76,2.22,5.09.18.19.38.39.58.53l.03.03c.7.55,1.49,1.02,2.37,1.36h.03s.03.03.09.03c.23.11.79.36.35.44Z"/>
      <path class="cls-1" d="M125.74,41.77c0,.58-.38,1.41-1.14,2.49l-2.63,3.71c-.23.3-.56,0-.56,0-.73-.86-1.11-1.91-1.11-3.18,0-.72.18-1.44.5-2.13.32-.72.91-1.3,1.75-1.83.41-.25.91-.42,1.4-.53,0,0,.12-.03.29-.03.09,0,.2,0,.29.03h.06c.09.03.15.06.2.08.23.08.44.22.64.44.2.22.29.53.29.94Z"/>
    </g>
    <path class="cls-1" d="M85.44,73.51c-11.87,0-18.4-9.51-18.4-19.75s6.52-19.64,18.4-19.64,18.4,9.4,18.4,19.64-6.58,19.75-18.4,19.75ZM85.44,34.86c-9.96,0-13.11,9.17-13.11,18.96s3.15,18.96,13.11,18.96,13.05-9.17,13.05-18.96-3.15-18.96-13.05-18.96Z"/>
  </g>
  <polygon class="cls-2" points="131.37 74.52 131.37 74.53 131.44 74.51 131.37 74.52"/>
</svg>